<?xml version="1.0" standalone="no"?>
<!DOCTYPE svg PUBLIC "-//W3C//DTD SVG 20010904//EN"
 "http://www.w3.org/TR/2001/REC-SVG-20010904/DTD/svg10.dtd">
<svg version="1.0" xmlns="http://www.w3.org/2000/svg"
 width="1024.000000pt" height="1024.000000pt" viewBox="0 0 1024.000000 1024.000000"
 preserveAspectRatio="xMidYMid meet">
<metadata>
Created by potrace 1.14, written by Peter Selinger 2001-2017
</metadata>
<g transform="translate(0.000000,1024.000000) scale(0.100000,-0.100000)"
fill="#000000" stroke="none">
<path d="M0 5120 l0 -5120 5120 0 5120 0 0 5120 0 5120 -5120 0 -5120 0 0
-5120z m5438 3725 c3 -37 -3 -47 -58 -110 -69 -79 -154 -241 -194 -370 -125
-397 -36 -841 272 -1350 106 -177 214 -326 292 -405 72 -73 137 -110 320 -185
388 -158 529 -235 636 -347 133 -138 227 -342 255 -548 17 -128 7 -305 -25
-433 -30 -121 -96 -294 -132 -347 -13 -19 -24 -40 -24 -47 0 -7 21 -44 46 -83
101 -157 188 -371 231 -573 28 -129 25 -505 -6 -692 -44 -274 -156 -620 -268
-832 -40 -76 -77 -134 -191 -296 -29 -42 -204 -220 -250 -255 -20 -15 -50 -40
-66 -55 -56 -52 -263 -184 -378 -240 -162 -80 -433 -167 -519 -167 -21 0 -40
-4 -43 -9 -3 -4 -41 -12 -83 -16 -43 -4 -87 -9 -98 -11 -68 -13 -389 40 -530
89 -231 80 -500 248 -691 434 -260 252 -408 489 -494 791 -33 118 -67 307 -76
422 -8 116 -8 116 -72 150 -119 63 -281 237 -351 379 -90 179 -104 437 -36
675 38 132 130 315 213 422 38 50 137 160 218 245 130 136 155 167 194 245 77
154 189 305 370 499 42 44 89 98 105 120 16 22 66 84 110 137 88 106 152 193
270 368 197 291 282 575 385 1285 42 288 61 355 151 530 77 151 144 248 300
435 163 195 211 227 217 145z"/>
<path d="M4923 7183 c2 -12 6 -26 10 -29 11 -11 8 19 -3 36 -8 12 -9 10 -7 -7z"/>
<path d="M4943 7120 c3 -14 8 -34 12 -45 5 -11 5 -17 0 -13 -4 4 -14 1 -21 -7
-12 -11 -11 -18 1 -42 8 -15 15 -34 15 -40 0 -7 4 -13 9 -13 5 0 13 -9 16 -20
7 -21 35 -28 35 -8 0 9 3 9 12 0 25 -25 25 -10 0 48 -15 33 -32 60 -39 60 -7
0 -10 6 -7 14 3 8 -4 31 -16 53 -16 30 -20 33 -17 13z"/>
<path d="M5060 6856 c0 -8 7 -16 15 -20 17 -6 18 -4 9 18 -8 20 -24 21 -24 2z"/>
<path d="M5094 6807 c3 -10 6 -25 6 -32 0 -16 27 -45 41 -45 10 0 -7 40 -21
50 -4 3 -12 14 -19 25 -10 17 -12 17 -7 2z"/>
<path d="M5140 6713 c0 -5 5 -15 10 -23 9 -13 10 -13 10 0 1 8 10 -5 20 -30
11 -27 19 -37 19 -25 1 24 -34 85 -49 85 -5 0 -10 -3 -10 -7z"/>
<path d="M6371 2664 c0 -11 3 -14 6 -6 3 7 2 16 -1 19 -3 4 -6 -2 -5 -13z"/>
<path d="M6323 2630 c-3 -11 -9 -20 -14 -20 -5 0 -6 -7 -3 -15 7 -17 34 -21
34 -5 0 6 6 10 14 10 22 0 30 19 16 36 -10 12 -16 12 -28 2 -13 -10 -14 -10
-8 0 4 6 4 12 1 12 -4 0 -9 -9 -12 -20z"/>
<path d="M6263 2568 c-3 -7 -1 -8 5 -4 7 4 12 2 12 -3 0 -6 7 -11 16 -11 9 0
14 5 12 12 -5 15 -36 19 -45 6z"/>
<path d="M6250 2523 c0 -6 -8 -10 -17 -8 -10 1 -12 0 -5 -2 6 -3 12 -10 12
-16 0 -7 5 -4 11 6 6 10 8 21 5 24 -3 4 -6 2 -6 -4z"/>
<path d="M6170 2464 c0 -14 3 -14 15 -4 8 7 15 14 15 16 0 2 -7 4 -15 4 -8 0
-15 -7 -15 -16z"/>
</g>
</svg>
